<svg version="1.2" xmlns="http://www.w3.org/2000/svg" viewBox="0 0 1000 1000" width="1000" height="1000">
	<title>6464200-ai</title>
	<defs>
		<linearGradient id="g1" x2="1" gradientUnits="userSpaceOnUse" gradientTransform="matrix(292.11,292.11,-292.11,292.11,462.19,82.212)">
			<stop offset=".051" stop-color="#742a86"/>
			<stop offset=".955" stop-color="#c42072"/>
		</linearGradient>
		<linearGradient id="g2" x2="1" gradientUnits="userSpaceOnUse" gradientTransform="matrix(189.377,189.377,-264.939,264.939,478.187,207.074)">
			<stop offset=".147" stop-color="#77c9ed"/>
			<stop offset=".973" stop-color="#452073"/>
		</linearGradient>
		<linearGradient id="g3" x2="1" gradientUnits="userSpaceOnUse" gradientTransform="matrix(115.003,210.122,-122.611,67.106,551.279,184.105)">
			<stop offset=".054" stop-color="#742a86"/>
			<stop offset=".846" stop-color="#c42072"/>
		</linearGradient>
		<radialGradient id="g4" cx="0" cy="0" r="1" gradientUnits="userSpaceOnUse" gradientTransform="matrix(171.737,0,0,171.737,500,617.34)">
			<stop offset="0" stop-color="#373737" stop-opacity="1"/>
			<stop offset="1" stop-color="#373737" stop-opacity="0"/>
		</radialGradient>
	</defs>
	<style>
		.s0 { fill: url(#g1) } 
		.s1 { fill: url(#g2) } 
		.s2 { fill: #f0f0f0 } 
		.s3 { opacity: .3;mix-blend-mode: screen;fill: url(#g3) } 
		.s4 { opacity: .2;fill: url(#g4) } 
	</style>
	<g id="BACKGROUND">
	</g>
	<g id="OBJECTS">
		<g id="&lt;Group&gt;">
			<g id="&lt;Group&gt;">
				<g id="&lt;Group&gt;">
				</g>
				<g id="&lt;Group&gt;">
					<g id="&lt;Group&gt;">
						<path id="&lt;Path&gt;" class="s0" d="m629.9 380.6c0-72.2-58.6-130.7-130.7-130.7-72.2 0-130.8 58.5-130.8 130.7 0 72.2 58.6 130.7 130.8 130.7 72.1 0 130.7-58.5 130.7-130.7z"/>
						<g id="&lt;Group&gt;">
							<path id="&lt;Path&gt;" class="s1" d="m593.4 321.6c11.3 16.5 7.1 37.9-1.1 54.6-21.5 45.5-91.8 93.1-142.5 74.4-17.1-6.2-23.2-23.9-21.4-40.9 1.8-18.4 10.8-36.2 22.5-50.5q1.7-2 3.6-4c-4.2 5.7-7.6 12-9.8 18.8-6.4 19.3 0.7 41.4 20 49.3 5.1 2.7 10.9 4.2 16.6 4.6 35.3 1.8 66.1-24.8 80.1-55.7 10.6-21.8 14.2-54.2-8.1-70.1-12.7-8.8-29.5-9.8-44.1-7.8-47.2 7.4-92.2 43.2-111.2 86.9-7.1 17.4-10.3 40 2.8 55.4-11.5-16-7.4-37.4 0.5-54 16.5-33.9 47.4-60.1 81.9-74.1 19-7.4 41.1-11.6 60.3-3.8 15.3 6.3 20.6 22.9 19.2 38.4-1.5 18.3-10.2 36-21.5 50.4-6.9 8.7-15.5 16.3-25.2 21.8q2.8-1.9 5.4-4.1c-15.4 10.5-35.4 16.1-53.1 9.2-18-6.9-24.3-27.3-18-44.7 7.7-22.8 30.4-40.4 54.4-42.2 27.8-2.1 45.1 20.2 37.2 46.7-3.4 12-11 22.6-20.5 31 15.6-10.9 27.7-29.7 26.1-49.6-0.8-10.3-5.6-18.6-12.6-24.4-2.4-2.4-5-4.4-8-5.9-9-4.5-19.4-5.4-29.1-4.2-30 4-54.9 26.4-67.6 53.2-11.1 21.9-15 54.2 6.6 71.1 12.3 9.5 29.1 11.5 44 10.2 48-5.1 94.9-40.1 114.7-83.9 7.4-17.6 10.7-40.2-2.1-56.1z"/>
							<g id="&lt;Group&gt;">
								<path id="&lt;Path&gt;" class="s2" d="m558.3 460.3c1 2.6 3.2 4.8 5.8 5.8 0.5 0.2 0.5 1 0 1.2-2.6 1-4.8 3.3-5.8 5.9-0.2 0.5-1 0.5-1.2 0-1-2.6-3.3-4.9-5.9-5.9-0.5-0.2-0.5-1 0-1.2 2.6-1 4.9-3.2 5.9-5.8 0.2-0.5 1-0.5 1.2 0z"/>
								<path id="&lt;Path&gt;" class="s2" d="m428.5 299c-1 2.7-3.2 4.9-5.8 5.9-0.5 0.2-0.5 1 0 1.2 2.6 1 4.8 3.2 5.8 5.8 0.2 0.6 1 0.6 1.2 0 1-2.6 3.2-4.8 5.9-5.8 0.5-0.2 0.5-1 0-1.2-2.7-1-4.9-3.2-5.9-5.9-0.2-0.5-1-0.5-1.2 0z"/>
								<path id="&lt;Path&gt;" class="s2" d="m573.2 381.6c-0.5 1.3-1.6 2.4-2.9 2.9-0.2 0.1-0.2 0.5 0 0.6 1.3 0.5 2.4 1.6 2.9 2.9 0.1 0.3 0.5 0.3 0.6 0 0.5-1.3 1.6-2.4 2.9-2.9 0.3-0.1 0.3-0.5 0-0.6-1.3-0.5-2.4-1.6-2.9-2.9-0.1-0.3-0.5-0.3-0.6 0z"/>
								<path id="&lt;Path&gt;" class="s2" d="m409.5 402.2c-0.5 1.3-1.6 2.4-2.9 2.9-0.3 0.1-0.3 0.5 0 0.6 1.3 0.5 2.4 1.6 2.9 2.9 0.1 0.2 0.5 0.2 0.6 0 0.5-1.3 1.6-2.4 2.9-2.9 0.2-0.1 0.2-0.5 0-0.6-1.3-0.5-2.4-1.6-2.9-2.9-0.1-0.3-0.5-0.3-0.6 0z"/>
								<path id="&lt;Path&gt;" class="s2" d="m584.9 433.4c-0.5 1.3-1.6 2.4-2.9 2.9-0.3 0.1-0.3 0.5 0 0.6 1.3 0.5 2.4 1.6 2.9 2.9 0.1 0.2 0.4 0.2 0.5 0 0.5-1.3 1.6-2.4 3-2.9 0.2-0.1 0.2-0.5 0-0.6-1.4-0.5-2.5-1.6-3-2.9-0.1-0.3-0.4-0.3-0.5 0z"/>
								<path id="&lt;Path&gt;" class="s2" d="m487.1 362.5c-0.8 2.1-2.6 3.9-4.8 4.8-0.4 0.1-0.4 0.8 0 0.9 2.2 0.9 4 2.7 4.8 4.8 0.2 0.4 0.8 0.4 1 0 0.8-2.1 2.6-3.9 4.8-4.8 0.4-0.1 0.4-0.8 0-0.9-2.2-0.9-4-2.7-4.8-4.8-0.2-0.5-0.8-0.5-1 0z"/>
								<path id="&lt;Path&gt;" class="s2" d="m495.7 383.8c-1.3 3.4-4.2 6.2-7.6 7.5-0.7 0.3-0.7 1.3 0 1.6 3.4 1.3 6.3 4.2 7.6 7.6 0.2 0.6 1.2 0.6 1.5 0 1.3-3.4 4.2-6.3 7.6-7.6 0.7-0.3 0.7-1.3 0-1.6-3.4-1.3-6.3-4.1-7.6-7.5-0.3-0.7-1.3-0.7-1.5 0z"/>
								<path id="&lt;Path&gt;" class="s2" d="m514.1 352.4c-1.1 2.7-3.4 5-6.1 6.1-0.6 0.2-0.6 1 0 1.2 2.7 1.1 5 3.4 6.1 6.1 0.2 0.6 1 0.6 1.2 0 1.1-2.7 3.4-5 6.1-6.1 0.6-0.2 0.6-1 0-1.2-2.7-1.1-5-3.4-6.1-6.1-0.2-0.6-1-0.6-1.2 0z"/>
								<path id="&lt;Path&gt;" class="s2" d="m458.6 282.3c-0.5 1.3-1.6 2.4-2.9 2.9-0.2 0.1-0.2 0.5 0 0.6 1.3 0.5 2.4 1.6 2.9 2.9 0.1 0.3 0.5 0.3 0.6 0 0.5-1.3 1.6-2.4 2.9-2.9 0.3-0.1 0.3-0.5 0-0.6-1.3-0.5-2.4-1.6-2.9-2.9-0.1-0.2-0.5-0.2-0.6 0z"/>
								<path id="&lt;Path&gt;" class="s2" d="m520.3 472.6c-0.5 1.4-1.6 2.5-2.9 3-0.3 0.1-0.3 0.4 0 0.5 1.3 0.5 2.4 1.6 2.9 2.9 0.1 0.3 0.5 0.3 0.6 0 0.5-1.3 1.6-2.4 2.9-2.9 0.2-0.1 0.2-0.4 0-0.5-1.3-0.5-2.4-1.6-2.9-3-0.1-0.2-0.5-0.2-0.6 0z"/>
							</g>
						</g>
					</g>
					<path id="&lt;Path&gt;" class="s3" d="m454.1 257.9c5.5 65.7 50.5 124.3 117.6 143.9 18.4 5.4 37 7.4 55.2 6.4 14.4-66.4-24.8-133.6-91-153-28-8.2-56.4-6.6-81.8 2.7z"/>
				</g>
			</g>
			<path id="&lt;Path&gt;" class="s4" d="m500 659.5c-132.3 0-239.2-18.8-239.2-42.2 0-23.3 106.9-42.1 239.2-42.1 132.3 0 239.2 18.8 239.2 42.1 0 23.4-106.9 42.2-239.2 42.2z"/>
		</g>
	</g>
</svg>