<svg version="1.2" xmlns="http://www.w3.org/2000/svg" viewBox="0 0 792 286" width="792" height="286">
	<title>logo-galaxy-ai-svg</title>
	<defs>
		<linearGradient id="g1" x2="1" gradientUnits="userSpaceOnUse" gradientTransform="matrix(216.597,216.597,-216.597,216.597,107.544,-78.331)">
			<stop offset=".051" stop-color="#742a86"/>
			<stop offset=".955" stop-color="#c42072"/>
		</linearGradient>
		<linearGradient id="g2" x2="1" gradientUnits="userSpaceOnUse" gradientTransform="matrix(140.421,140.421,-196.458,196.458,119.406,14.253)">
			<stop offset=".147" stop-color="#77c9ed"/>
			<stop offset=".973" stop-color="#452073"/>
		</linearGradient>
		<linearGradient id="g3" x2="1" gradientUnits="userSpaceOnUse" gradientTransform="matrix(85.274,155.804,-90.904,49.753,173.603,-2.778)">
			<stop offset=".054" stop-color="#742a86"/>
			<stop offset=".846" stop-color="#c42072"/>
		</linearGradient>
	</defs>
	<style>
		.s0 { fill: #dcdcdc } 
		.s1 { fill: #c42072 } 
		.s2 { fill: url(#g1) } 
		.s3 { fill: url(#g2) } 
		.s4 { fill: #f0f0f0 } 
		.s5 { opacity: .3;mix-blend-mode: screen;fill: url(#g3) } 
	</style>
	<g id="BACKGROUND">
	</g>
	<g id="OBJECTS">
		<g id="&lt;Group&gt;">
			<g id="&lt;Group&gt;">
				<g id="&lt;Group&gt;">
					<path id="GALAXY" fill-rule="evenodd" class="s0" d="m312.9 89.1h-7.5c-3.5-8.2-11.2-13.4-21.4-13.4-14.1 0-24.9 10.1-24.9 26.5 0 16.5 10.8 26.7 24.9 26.7 13.3 0 23.1-9 24.1-23.4h-26.6v-5.2h33.4v4.7c-1 16.8-13.6 29.6-30.9 29.6-17.8 0-31.4-13.3-31.4-32.4 0-18.9 13.6-32.4 31.4-32.4 13.6 0 24.3 7.2 28.9 19.3zm80.3 29.8h-28.9l-5.5 15.1h-6.7l23.1-62.6h7.2l23 62.6h-6.7zm-14.5-39.5l-12.5 34.3h25zm73.1-8.8v58.3h22.8v5.1h-29.1v-63.4zm98.6 48.4h-28.8l-5.6 15h-6.7l23.1-62.6h7.2l23.1 62.6h-6.8zm-14.5-39.6l-12.5 34.3h25.1zm85.8 28.1l-15.4 26.5h-7l19.1-32-19.1-31.4h7l16.1 26.4 15.5-26.4h7.1l-19.3 31.7 19.2 31.7h-7.1zm58.8-36.9h7.2l16.5 32.9 16.4-32.9h7.1l-20.3 38.7v24.7h-6.4v-24.7z"/>
					<path id="Discover gaming" fill-rule="evenodd" class="s1" d="m301.5 172.8c0 6.4-4.1 10.2-10.8 10.2h-6.4v-20.5h6.4c6.7 0 10.8 4 10.8 10.3zm-10.8 8c5.3 0 8.1-3 8.1-8 0-5-2.8-8.1-8.1-8.1h-3.7v16.1zm24-13.9h2.7v16.1h-2.7zm1.4-2.6c-1 0-1.8-0.8-1.8-1.8 0-1 0.8-1.8 1.8-1.8 1 0 1.8 0.8 1.8 1.8 0 1-0.8 1.8-1.8 1.8zm21.3 19c-3.8 0-6.4-2.1-6.6-5h2.7c0.2 1.5 1.6 2.7 3.8 2.7 2.1 0 3.3-1 3.3-2.4 0-3.5-9.5-1.5-9.5-7.5 0-2.4 2.3-4.4 5.9-4.4 3.6 0 5.9 1.9 6.1 5h-2.7c-0.1-1.6-1.3-2.8-3.5-2.8-1.9 0-3.1 1-3.1 2.2 0 3.9 9.3 1.8 9.4 7.5 0 2.7-2.3 4.7-5.8 4.7zm26.1-16.6c4 0 6.6 2 7.5 5.4h-2.9c-0.6-2-2.2-3.2-4.6-3.2-2.9 0-5.1 2.1-5.1 6 0 4 2.2 6.1 5.1 6.1 2.4 0 4-1.1 4.6-3.2h2.9c-0.9 3.2-3.5 5.5-7.5 5.5-4.6 0-7.8-3.3-7.8-8.4 0-5 3.2-8.2 7.8-8.2zm27.7 16.6c-4.5 0-8-3.3-8-8.4 0-5 3.6-8.2 8.1-8.2 4.6 0 8.2 3.2 8.2 8.2 0 5.1-3.7 8.4-8.3 8.4zm0-2.4c2.8 0 5.5-1.9 5.5-6 0-4-2.6-5.9-5.4-5.9-2.8 0-5.4 1.9-5.4 5.9 0 4.1 2.5 6 5.3 6zm22.5-14l5 13.6 5-13.6h2.8l-6.3 16.1h-3.1l-6.3-16.1zm32.1 16.4c-4.6 0-8-3.3-8-8.4 0-5 3.3-8.2 8-8.2 4.7 0 7.7 3.2 7.7 7.6 0 0.6 0 1.1-0.1 1.7h-12.8c0.2 3.2 2.5 5 5.2 5 2.4 0 3.9-1.2 4.5-3h2.9c-0.8 3-3.4 5.3-7.4 5.3zm-5.2-9.5h10.1c0.1-3.2-2.3-4.9-5-4.9-2.6 0-4.8 1.7-5.1 4.9zm28.8 9.2h-2.7v-16.1h2.7v2.6c0.9-1.8 2.6-2.9 5.2-2.9v2.8h-0.7c-2.6 0-4.5 1.1-4.5 4.9zm42.1-16.3c3 0 5.1 1.5 6 3.2v-2.9h2.7v16.4c0 4.4-2.9 7.6-7.7 7.6-4.2 0-7.2-2.2-7.8-5.6h2.7c0.6 1.9 2.5 3.3 5.1 3.3 2.9 0 5-1.9 5-5.3v-3.4c-0.9 1.8-3 3.3-6 3.3-4.3 0-7.6-3.4-7.6-8.3 0-5.1 3.3-8.3 7.6-8.3zm6 8.3c0-3.3-2.4-6-5.5-6-3 0-5.4 2.7-5.4 6 0 3.3 2.4 6 5.4 6 3.1 0 5.5-2.7 5.5-6zm23.6-8.3c3 0 5 1.5 6 3.2v-2.9h2.7v16.1h-2.7v-3c-1 1.7-3.1 3.2-6.1 3.2-4.2 0-7.6-3.4-7.6-8.3 0-5.1 3.4-8.3 7.7-8.3zm6 8.3c0-3.3-2.4-6-5.4-6-3.1 0-5.5 2.7-5.5 6 0 3.3 2.4 6 5.5 6 3 0 5.4-2.7 5.4-6zm40.1-1c0-3.3-1.8-5-4.4-5-2.7 0-4.6 1.7-4.6 5.2v8.9h-2.6v-9.1c0-3.3-1.8-5-4.4-5-2.7 0-4.6 1.7-4.6 5.2v8.9h-2.6v-16.1h2.6v2.3c1.1-1.7 3-2.6 5.1-2.6 2.7 0 4.9 1.1 5.9 3.6 1-2.4 3.3-3.6 5.7-3.6 3.7 0 6.5 2.3 6.5 6.9v9.5h-2.6zm16.7-7h2.7v16.1h-2.7zm1.4-2.6c-1 0-1.8-0.8-1.8-1.8 0-1.1 0.8-1.9 1.8-1.9 1 0 1.8 0.8 1.8 1.9 0 1-0.8 1.8-1.8 1.8zm27.3 9.6c0-3.3-1.8-5-4.5-5-2.7 0-4.6 1.7-4.6 5.2v8.9h-2.7v-16.1h2.7v2.3c1.1-1.7 3-2.6 5.2-2.6 3.7 0 6.5 2.3 6.5 6.9v9.5h-2.6zm23.3-7.3c3 0 5.1 1.5 6 3.2v-2.9h2.7v16.4c0 4.4-2.9 7.6-7.7 7.6-4.2 0-7.2-2.2-7.7-5.6h2.6c0.6 1.9 2.5 3.3 5.1 3.3 2.9 0 5-1.9 5-5.3v-3.4c-0.9 1.8-3 3.3-6 3.3-4.3 0-7.6-3.4-7.6-8.3 0-5.1 3.3-8.3 7.6-8.3zm6 8.3c0-3.3-2.4-6-5.4-6-3.1 0-5.5 2.7-5.5 6 0 3.3 2.4 6 5.5 6 3 0 5.4-2.7 5.4-6z"/>
				</g>
				<g id="&lt;Group&gt;">
					<g id="&lt;Group&gt;">
						<path id="&lt;Path&gt;" class="s2" d="m135 239.8c-53.7 0-97-43.3-97-96.9 0-53.6 43.3-96.9 97-96.9 53.6 0 96.9 43.3 96.9 96.9 0 53.6-43.3 96.9-96.9 96.9z"/>
						<g id="&lt;Group&gt;">
							<path id="&lt;Path&gt;" class="s3" d="m204.8 99.2c8.4 12.2 5.3 28.1-0.8 40.5-15.9 33.7-68 69-105.6 55.1-12.7-4.6-17.2-17.7-15.9-30.3 1.3-13.6 8-26.8 16.7-37.4q1.2-1.5 2.6-3c-3.1 4.2-5.6 8.9-7.2 13.9-4.8 14.3 0.5 30.7 14.8 36.6 3.8 2 8.1 3.1 12.3 3.4 26.2 1.3 49-18.4 59.4-41.3 7.9-16.2 10.5-40.2-6-52-9.4-6.5-21.9-7.3-32.7-5.8-35 5.5-68.4 32.1-82.5 64.5-5.2 12.9-7.6 29.6 2.1 41-8.5-11.8-5.5-27.7 0.4-40 12.2-25.1 35.1-44.6 60.7-54.9 14.1-5.5 30.5-8.6 44.7-2.9 11.4 4.7 15.3 17 14.3 28.5-1.1 13.6-7.6 26.7-16 37.4-5.1 6.4-11.5 12.1-18.7 16.2q2.1-1.5 4-3.1c-11.4 7.8-26.2 11.9-39.3 6.8-13.4-5.1-18-20.2-13.4-33.1 5.7-16.9 22.6-30 40.4-31.3 20.6-1.6 33.4 15 27.5 34.6-2.5 8.9-8.1 16.8-15.2 23 11.6-8.1 20.6-22 19.4-36.8-0.6-7.6-4.2-13.8-9.3-18.1-1.8-1.7-3.7-3.2-6-4.3-6.6-3.4-14.4-4-21.6-3.1-22.2 2.9-40.7 19.5-50.1 39.4-8.2 16.2-11.1 40.2 4.9 52.7 9.1 7.1 21.6 8.5 32.6 7.6 35.6-3.8 70.4-29.8 85.1-62.2 5.5-13.1 7.9-29.8-1.6-41.6z"/>
							<g id="&lt;Group&gt;">
								<path id="&lt;Path&gt;" class="s4" d="m178.8 202c0.8 1.9 2.4 3.6 4.3 4.3 0.4 0.2 0.4 0.8 0 0.9-1.9 0.7-3.5 2.5-4.3 4.4-0.1 0.4-0.7 0.4-0.9 0-0.7-1.9-2.4-3.7-4.4-4.4-0.3-0.1-0.3-0.7 0-0.9 2-0.7 3.7-2.4 4.4-4.3 0.2-0.4 0.8-0.4 0.9 0z"/>
								<path id="&lt;Path&gt;" class="s4" d="m82.6 82.4c-0.8 2-2.4 3.6-4.3 4.4-0.4 0.1-0.4 0.7 0 0.9 1.9 0.7 3.5 2.4 4.3 4.3 0.1 0.4 0.7 0.4 0.9 0 0.7-1.9 2.3-3.6 4.3-4.3 0.4-0.2 0.4-0.8 0-0.9-2-0.8-3.6-2.4-4.3-4.4-0.2-0.4-0.8-0.4-0.9 0z"/>
								<path id="&lt;Path&gt;" class="s4" d="m189.9 143.7c-0.4 0.9-1.2 1.7-2.2 2.1-0.1 0.1-0.1 0.4 0 0.5 1 0.3 1.8 1.1 2.2 2.1 0 0.2 0.3 0.2 0.4 0 0.4-1 1.2-1.8 2.2-2.1 0.2-0.1 0.2-0.4 0-0.5-1-0.4-1.8-1.2-2.2-2.1-0.1-0.3-0.4-0.3-0.4 0z"/>
								<path id="&lt;Path&gt;" class="s4" d="m68.5 158.9c-0.4 1-1.2 1.8-2.2 2.2-0.2 0.1-0.2 0.4 0 0.4 1 0.4 1.8 1.2 2.2 2.2 0 0.1 0.3 0.1 0.4 0 0.4-1 1.2-1.8 2.2-2.2 0.1 0 0.1-0.3 0-0.4-1-0.4-1.8-1.2-2.2-2.2-0.1-0.2-0.4-0.2-0.4 0z"/>
								<path id="&lt;Path&gt;" class="s4" d="m198.5 182.1c-0.3 0.9-1.2 1.8-2.1 2.1-0.2 0.1-0.2 0.4 0 0.5 0.9 0.3 1.8 1.2 2.1 2.1 0.1 0.2 0.3 0.2 0.4 0 0.4-0.9 1.2-1.8 2.2-2.1 0.2-0.1 0.2-0.4 0-0.5-1-0.3-1.8-1.2-2.2-2.1-0.1-0.3-0.3-0.3-0.4 0z"/>
								<path id="&lt;Path&gt;" class="s4" d="m126 129.5c-0.6 1.6-1.9 2.9-3.5 3.6-0.3 0-0.3 0.6 0 0.6 1.6 0.7 2.9 2 3.5 3.6 0.2 0.3 0.6 0.3 0.8 0 0.5-1.6 1.9-2.9 3.5-3.6 0.3 0 0.3-0.6 0-0.6-1.6-0.7-3-2-3.5-3.6-0.2-0.4-0.6-0.4-0.8 0z"/>
								<path id="&lt;Path&gt;" class="s4" d="m132.4 145.3c-1 2.5-3.1 4.6-5.6 5.6-0.6 0.2-0.6 0.9 0 1.1 2.5 1 4.6 3.2 5.6 5.7 0.1 0.4 0.9 0.4 1.1 0 1-2.5 3.1-4.7 5.6-5.7 0.6-0.2 0.6-0.9 0-1.1-2.5-1-4.6-3.1-5.6-5.6-0.2-0.5-1-0.5-1.1 0z"/>
								<path id="&lt;Path&gt;" class="s4" d="m146 122c-0.8 2-2.5 3.7-4.5 4.5-0.4 0.2-0.4 0.8 0 0.9 2 0.8 3.7 2.5 4.5 4.5 0.2 0.5 0.8 0.5 0.9 0 0.8-2 2.5-3.7 4.5-4.5 0.5-0.1 0.5-0.7 0-0.9-2-0.8-3.7-2.5-4.5-4.5-0.1-0.4-0.7-0.4-0.9 0z"/>
								<path id="&lt;Path&gt;" class="s4" d="m104.9 70c-0.4 1-1.2 1.8-2.2 2.2-0.1 0.1-0.1 0.4 0 0.4 1 0.4 1.8 1.2 2.2 2.2 0.1 0.2 0.4 0.2 0.4 0 0.4-1 1.2-1.8 2.2-2.2 0.2 0 0.2-0.3 0-0.4-1-0.4-1.8-1.2-2.2-2.2 0-0.1-0.3-0.1-0.4 0z"/>
								<path id="&lt;Path&gt;" class="s4" d="m150.6 211.1c-0.3 1.1-1.2 1.9-2.1 2.3-0.2 0-0.2 0.3 0 0.3 0.9 0.4 1.8 1.2 2.1 2.2 0.1 0.2 0.4 0.2 0.5 0 0.3-1 1.2-1.8 2.1-2.2 0.2 0 0.2-0.3 0-0.3-0.9-0.4-1.8-1.2-2.1-2.3-0.1-0.1-0.4-0.1-0.5 0z"/>
							</g>
						</g>
					</g>
					<path id="&lt;Path&gt;" class="s5" d="m101.5 51.9c4.1 48.8 37.5 92.2 87.2 106.7 13.7 4 27.5 5.5 41 4.8 10.7-49.2-18.4-99.1-67.5-113.5-20.8-6-41.8-4.9-60.7 2z"/>
				</g>
			</g>
		</g>
	</g>
</svg>