<svg version="1.2" xmlns="http://www.w3.org/2000/svg" viewBox="0 0 792 286" width="792" height="286">
	<title>6464200-ai</title>
	<defs>
		<linearGradient id="g1" x2="1" gradientUnits="userSpaceOnUse" gradientTransform="matrix(292.11,292.11,-292.11,292.11,107.19,-154.788)">
			<stop offset=".051" stop-color="#742a86"/>
			<stop offset=".955" stop-color="#c42072"/>
		</linearGradient>
		<linearGradient id="g2" x2="1" gradientUnits="userSpaceOnUse" gradientTransform="matrix(189.377,189.377,-264.939,264.939,123.187,-29.926)">
			<stop offset=".147" stop-color="#77c9ed"/>
			<stop offset=".973" stop-color="#452073"/>
		</linearGradient>
		<linearGradient id="g3" x2="1" gradientUnits="userSpaceOnUse" gradientTransform="matrix(115.003,210.122,-122.611,67.106,196.279,-52.895)">
			<stop offset=".054" stop-color="#742a86"/>
			<stop offset=".846" stop-color="#c42072"/>
		</linearGradient>
	</defs>
	<style>
		.s0 { fill: #dcdcdc } 
		.s1 { fill: #c42072 } 
		.s2 { fill: url(#g1) } 
		.s3 { fill: url(#g2) } 
		.s4 { fill: #f0f0f0 } 
		.s5 { opacity: .3;mix-blend-mode: screen;fill: url(#g3) } 
	</style>
	<g id="BACKGROUND">
	</g>
	<g id="OBJECTS">
		<g id="&lt;Group&gt;">
			<g id="&lt;Group&gt;">
				<g id="&lt;Group&gt;">
					<path id="GALAXY" class="s0" aria-label="GALAXY"  d="m331 90.8c-17.8 0-31.4 13.5-31.4 32.4 0 19.1 13.6 32.4 31.4 32.4 17.3 0 29.9-12.8 30.9-29.6v-4.7h-33.4v5.2h26.6c-1 14.4-10.8 23.4-24.1 23.4-14.1 0-24.9-10.2-24.9-26.7 0-16.4 10.8-26.5 24.9-26.5 10.2 0 17.9 5.2 21.4 13.4h7.5c-4.6-12.1-15.3-19.3-28.9-19.3zm114.7 64.2h6.7l-23-62.6h-7.2l-23.1 62.6h6.7l5.5-15.1h28.9zm-7.5-20.3h-25l12.5-34.3zm54.3-43.1v63.4h29.1v-5.1h-22.8v-58.3zm110.4 63.4h6.8l-23.1-62.6h-7.2l-23.1 62.6h6.7l5.6-15h28.8zm-7.4-20.3h-25.1l12.5-34.3zm89.3 20.3h7.1l-19.2-31.7 19.3-31.7h-7.1l-15.5 26.4-16.1-26.4h-7l19.1 31.4-19.1 32h7l15.4-26.5zm63.2-24.7v24.7h6.4v-24.7l20.3-38.7h-7.1l-16.4 32.9-16.5-32.9h-7.2z"/>
					<path id="Discover gaming" class="s1" aria-label="Discover gaming"  d="m351.7 189.5h-6.4v20.5h6.4c6.7 0 10.8-3.8 10.8-10.2 0-6.3-4.1-10.3-10.8-10.3zm-3.7 18.3v-16.1h3.7c5.3 0 8.1 3.1 8.1 8.1 0 5-2.8 8-8.1 8zm27.7 2.2h2.7v-16.1h-2.7zm1.4-18.7c1 0 1.8-0.8 1.8-1.8 0-1-0.8-1.8-1.8-1.8-1 0-1.8 0.8-1.8 1.8 0 1 0.8 1.8 1.8 1.8zm27.1 14.3c-0.1-5.7-9.4-3.6-9.4-7.5 0-1.2 1.2-2.2 3.1-2.2 2.2 0 3.4 1.2 3.5 2.8h2.7c-0.2-3.1-2.5-5-6.1-5-3.6 0-5.9 2-5.9 4.4 0 6 9.5 4 9.5 7.5 0 1.4-1.2 2.4-3.3 2.4-2.2 0-3.6-1.2-3.8-2.7h-2.7c0.2 2.9 2.8 5 6.6 5 3.5 0 5.8-2 5.8-4.7zm12.5-3.7c0 5.1 3.2 8.4 7.8 8.4 4 0 6.6-2.3 7.5-5.5h-2.9c-0.6 2.1-2.2 3.2-4.6 3.2-2.9 0-5.1-2.1-5.1-6.1 0-3.9 2.2-6 5.1-6 2.4 0 4 1.2 4.6 3.2h2.9c-0.9-3.4-3.5-5.4-7.5-5.4-4.6 0-7.8 3.2-7.8 8.2zm43.8 0c0-5-3.6-8.2-8.2-8.2-4.5 0-8.1 3.2-8.1 8.2 0 5.1 3.5 8.4 8 8.4 4.6 0 8.3-3.3 8.3-8.4zm-13.6 0c0-4 2.6-5.9 5.4-5.9 2.8 0 5.4 1.9 5.4 5.9 0 4.1-2.7 6-5.5 6-2.8 0-5.3-1.9-5.3-6zm24.9-8l6.3 16.1h3.1l6.3-16.1h-2.8l-5 13.6-5-13.6zm34.9 2c2.7 0 5.1 1.7 5 4.9h-10.1c0.3-3.2 2.5-4.9 5.1-4.9zm7.5 9.1h-2.9c-0.6 1.8-2.1 3-4.5 3-2.7 0-5-1.8-5.2-5h12.8c0.1-0.6 0.1-1.1 0.1-1.7 0-4.4-3-7.6-7.7-7.6-4.7 0-8 3.2-8 8.2 0 5.1 3.4 8.4 8 8.4 4 0 6.6-2.3 7.4-5.3zm16.2-3.7c0-3.8 1.9-4.9 4.5-4.9h0.7v-2.8c-2.6 0-4.3 1.1-5.2 2.9v-2.6h-2.7v16.1h2.7zm34.5 0.7c0 4.9 3.3 8.3 7.6 8.3 3 0 5.1-1.5 6-3.3v3.4c0 3.4-2.1 5.3-5 5.3-2.6 0-4.5-1.4-5.1-3.3h-2.7c0.6 3.4 3.6 5.6 7.8 5.6 4.8 0 7.7-3.2 7.7-7.6v-16.4h-2.7v2.9c-0.9-1.7-3-3.2-6-3.2-4.3 0-7.6 3.2-7.6 8.3zm13.6 0c0 3.8-2.5 6-5.4 6-3 0-5.5-2.3-5.5-6 0-3.8 2.5-6 5.5-6 2.9 0 5.4 2.3 5.4 6zm15.9 0c0 4.9 3.4 8.3 7.6 8.3 3 0 5.1-1.5 6.1-3.2v3h2.7v-16.1h-2.7v2.9c-1-1.7-3-3.2-6-3.2-4.3 0-7.7 3.2-7.7 8.3zm13.7 0c0 3.8-2.6 6-5.5 6-2.9 0-5.4-2.3-5.4-6 0-3.8 2.5-6 5.4-6 2.9 0 5.5 2.3 5.5 6zm40.1 8.1h2.6v-9.5c0-4.6-2.8-6.9-6.5-6.9-2.4 0-4.7 1.2-5.7 3.6-1-2.5-3.2-3.6-5.9-3.6-2.1 0-4 0.9-5.1 2.6v-2.3h-2.6v16.1h2.6v-8.9c0-3.5 1.9-5.2 4.6-5.2 2.6 0 4.4 1.7 4.4 5v9.1h2.6v-8.9c0-3.5 1.9-5.2 4.6-5.2 2.6 0 4.4 1.7 4.4 5zm16.7 0h2.7v-16.1h-2.7zm1.4-18.7c1 0 1.8-0.8 1.8-1.9 0-1-0.8-1.8-1.8-1.8-1 0-1.8 0.8-1.8 1.8 0 1.1 0.8 1.9 1.8 1.9zm27.3 18.7h2.6v-9.5c0-4.6-2.8-6.9-6.5-6.9-2.2 0-4.1 0.9-5.2 2.6v-2.3h-2.7v16.1h2.7v-8.9c0-3.5 1.9-5.2 4.6-5.2 2.7 0 4.5 1.7 4.5 5zm15.7-8.1c0 4.9 3.3 8.3 7.6 8.3 3 0 5.1-1.5 6-3.3v3.4c0 3.4-2.1 5.3-5 5.3-2.6 0-4.5-1.4-5.1-3.3h-2.6c0.5 3.4 3.5 5.6 7.7 5.6 4.8 0 7.7-3.2 7.7-7.6v-16.4h-2.7v2.9c-0.9-1.7-3-3.2-6-3.2-4.3 0-7.6 3.2-7.6 8.3zm13.6 0c0 3.8-2.5 6-5.4 6-3 0-5.5-2.3-5.5-6 0-3.8 2.5-6 5.5-6 2.9 0 5.4 2.3 5.4 6z"/>
				</g>
				<g id="&lt;Group&gt;">
					<g id="&lt;Group&gt;">
						<path id="&lt;Path&gt;" class="s2" d="m274.9 143.6c0-72.2-58.6-130.7-130.7-130.7-72.2 0-130.8 58.5-130.8 130.7 0 72.2 58.6 130.7 130.8 130.7 72.1 0 130.7-58.5 130.7-130.7z"/>
						<g id="&lt;Group&gt;">
							<path id="&lt;Path&gt;" class="s3" d="m238.4 84.6c11.3 16.5 7.1 37.9-1.1 54.6-21.5 45.5-91.8 93.1-142.5 74.4-17.1-6.2-23.2-23.9-21.4-40.9 1.8-18.4 10.8-36.2 22.5-50.5q1.7-2 3.6-4c-4.2 5.7-7.6 12-9.8 18.8-6.4 19.3 0.7 41.4 20 49.3 5.1 2.7 10.9 4.2 16.6 4.6 35.3 1.8 66.1-24.8 80.1-55.7 10.6-21.8 14.2-54.2-8.1-70.1-12.7-8.8-29.5-9.8-44.1-7.8-47.2 7.4-92.2 43.2-111.2 86.9-7.1 17.4-10.3 40 2.8 55.4-11.5-16-7.4-37.4 0.5-54 16.5-33.9 47.4-60.1 81.9-74.1 19-7.4 41.1-11.6 60.3-3.8 15.3 6.3 20.6 22.9 19.2 38.4-1.5 18.3-10.2 36-21.5 50.4-6.9 8.7-15.5 16.3-25.2 21.8q2.8-1.9 5.4-4.1c-15.4 10.5-35.4 16.1-53.1 9.2-18-6.9-24.3-27.3-18-44.7 7.7-22.8 30.4-40.4 54.4-42.2 27.8-2.1 45.1 20.2 37.2 46.7-3.4 12-11 22.6-20.5 31 15.6-10.9 27.7-29.7 26.1-49.6-0.8-10.3-5.6-18.6-12.6-24.4-2.4-2.4-5-4.4-8-5.9-9-4.5-19.4-5.4-29.1-4.2-30 4-54.9 26.4-67.6 53.2-11.1 21.9-15 54.2 6.6 71.1 12.3 9.5 29.1 11.5 44 10.2 48-5.1 94.9-40.1 114.7-83.9 7.4-17.6 10.7-40.2-2.1-56.1z"/>
							<g id="&lt;Group&gt;">
								<path id="&lt;Path&gt;" class="s4" d="m203.3 223.3c1 2.6 3.2 4.8 5.8 5.8 0.5 0.2 0.5 1 0 1.2-2.6 1-4.8 3.3-5.8 5.9-0.2 0.5-1 0.5-1.2 0-1-2.6-3.3-4.9-5.9-5.9-0.5-0.2-0.5-1 0-1.2 2.6-1 4.9-3.2 5.9-5.8 0.2-0.5 1-0.5 1.2 0z"/>
								<path id="&lt;Path&gt;" class="s4" d="m73.5 62c-1 2.7-3.2 4.9-5.8 5.9-0.5 0.2-0.5 1 0 1.2 2.6 1 4.8 3.2 5.8 5.8 0.2 0.6 1 0.6 1.2 0 1-2.6 3.2-4.8 5.9-5.8 0.5-0.2 0.5-1 0-1.2-2.7-1-4.9-3.2-5.9-5.9-0.2-0.5-1-0.5-1.2 0z"/>
								<path id="&lt;Path&gt;" class="s4" d="m218.2 144.6c-0.5 1.3-1.6 2.4-2.9 2.9-0.2 0.1-0.2 0.5 0 0.6 1.3 0.5 2.4 1.6 2.9 2.9 0.1 0.3 0.5 0.3 0.6 0 0.5-1.3 1.6-2.4 2.9-2.9 0.3-0.1 0.3-0.5 0-0.6-1.3-0.5-2.4-1.6-2.9-2.9-0.1-0.3-0.5-0.3-0.6 0z"/>
								<path id="&lt;Path&gt;" class="s4" d="m54.5 165.2c-0.5 1.3-1.6 2.4-2.9 2.9-0.3 0.1-0.3 0.5 0 0.6 1.3 0.5 2.4 1.6 2.9 2.9 0.1 0.2 0.5 0.2 0.6 0 0.5-1.3 1.6-2.4 2.9-2.9 0.2-0.1 0.2-0.5 0-0.6-1.3-0.5-2.4-1.6-2.9-2.9-0.1-0.3-0.5-0.3-0.6 0z"/>
								<path id="&lt;Path&gt;" class="s4" d="m229.9 196.4c-0.5 1.3-1.6 2.4-2.9 2.9-0.3 0.1-0.3 0.5 0 0.6 1.3 0.5 2.4 1.6 2.9 2.9 0.1 0.2 0.4 0.2 0.5 0 0.5-1.3 1.6-2.4 3-2.9 0.2-0.1 0.2-0.5 0-0.6-1.4-0.5-2.5-1.6-3-2.9-0.1-0.3-0.4-0.3-0.5 0z"/>
								<path id="&lt;Path&gt;" class="s4" d="m132.1 125.5c-0.8 2.1-2.6 3.9-4.8 4.8-0.4 0.1-0.4 0.8 0 0.9 2.2 0.9 4 2.7 4.8 4.8 0.2 0.4 0.8 0.4 1 0 0.8-2.1 2.6-3.9 4.8-4.8 0.4-0.1 0.4-0.8 0-0.9-2.2-0.9-4-2.7-4.8-4.8-0.2-0.5-0.8-0.5-1 0z"/>
								<path id="&lt;Path&gt;" class="s4" d="m140.7 146.8c-1.3 3.4-4.2 6.2-7.6 7.5-0.7 0.3-0.7 1.3 0 1.6 3.4 1.3 6.3 4.2 7.6 7.6 0.2 0.6 1.2 0.6 1.5 0 1.3-3.4 4.2-6.3 7.6-7.6 0.7-0.3 0.7-1.3 0-1.6-3.4-1.3-6.3-4.1-7.6-7.5-0.3-0.7-1.3-0.7-1.5 0z"/>
								<path id="&lt;Path&gt;" class="s4" d="m159.1 115.4c-1.1 2.7-3.4 5-6.1 6.1-0.6 0.2-0.6 1 0 1.2 2.7 1.1 5 3.4 6.1 6.1 0.2 0.6 1 0.6 1.2 0 1.1-2.7 3.4-5 6.1-6.1 0.6-0.2 0.6-1 0-1.2-2.7-1.1-5-3.4-6.1-6.1-0.2-0.6-1-0.6-1.2 0z"/>
								<path id="&lt;Path&gt;" class="s4" d="m103.6 45.3c-0.5 1.3-1.6 2.4-2.9 2.9-0.2 0.1-0.2 0.5 0 0.6 1.3 0.5 2.4 1.6 2.9 2.9 0.1 0.3 0.5 0.3 0.6 0 0.5-1.3 1.6-2.4 2.9-2.9 0.3-0.1 0.3-0.5 0-0.6-1.3-0.5-2.4-1.6-2.9-2.9-0.1-0.2-0.5-0.2-0.6 0z"/>
								<path id="&lt;Path&gt;" class="s4" d="m165.3 235.6c-0.5 1.4-1.6 2.5-2.9 3-0.3 0.1-0.3 0.4 0 0.5 1.3 0.5 2.4 1.6 2.9 2.9 0.1 0.3 0.5 0.3 0.6 0 0.5-1.3 1.6-2.4 2.9-2.9 0.2-0.1 0.2-0.4 0-0.5-1.3-0.5-2.4-1.6-2.9-3-0.1-0.2-0.5-0.2-0.6 0z"/>
							</g>
						</g>
					</g>
					<path id="&lt;Path&gt;" class="s5" d="m99.1 20.9c5.5 65.7 50.5 124.3 117.6 143.9 18.4 5.4 37 7.4 55.2 6.4 14.4-66.4-24.8-133.6-91-153-28-8.2-56.4-6.6-81.8 2.7z"/>
				</g>
			</g>
		</g>
	</g>
</svg>